<svg xmlns="http://www.w3.org/2000/svg" version="1.1" width="800px" height="800px" xlink="http://www.w3.org/1999/xlink" style="overflow:hidden!important;"><g id="svga-group-wrapper" transform="scale(4 4)"><g id="svga-group-backs-single"></g><g id="svga-group-subwrapper" ><g id="svga-group-hair-back" ><path id="SvgjsPath3520" d="M100.5,100.5h-1v-1h1V100.5z" fill="#2a232b" stroke-width="none" opacity="1" stroke="none"></path></g><g id="svga-group-humanbody-single"><path id="SvgjsPath2890" d="M195.417 199.778c-2.196-4.746-8.195-11.779-14.86-13.722 -8.239-2.403-26.837-5.308-33.733-6.923 -5.528-1.296-16.662-11.294-20.564-14.65 -0.7-0.6-1.273-1.839-1.287-2.76 -0.139-10.864 4.195-39.724 4.195-39.724H100 70.833c0 0 4.334 28.859 4.193 39.724 -0.011 0.921-0.587 2.16-1.285 2.76 -3.902 3.356-15.036 13.354-20.564 14.65 -6.897 1.615-25.495 4.619-33.733 7.022 -6.667 1.942-12.664 8.876-14.86 13.622 -3.708 8.008-4.584 22.5-4.584 35h100 100C200 222.278 199.123 207.786 195.417 199.778z" fill="#f0c7b1" stroke-width="none" opacity="1" stroke="none"></path><path id="SvgjsPath2891" d="M159.156 184.058c24.342 3.542 34.586 8.708 37.794 50.721H200c0-12.5-0.877-26.992-4.583-35 -2.196-4.746-8.195-11.779-14.86-13.722 -8.239-2.403-26.837-5.308-33.733-6.923 -5.528-1.296-18.242-12.069-21.643-16.35 3.36 4.704 12.791 15.605 21.054 18.46C150.188 182.61 153.48 183.232 159.156 184.058zM53.766 181.244c8.263-2.854 17.693-13.756 21.054-18.46 -3.4 4.28-16.114 15.054-21.643 16.35 -6.896 1.615-25.494 4.619-33.733 7.022 -6.665 1.942-12.664 8.876-14.86 13.622 -3.706 8.008-4.583 22.5-4.583 35h3.05c3.188-41.744 13.475-47.183 37.794-50.721C46.52 183.232 49.813 182.61 53.766 181.244z" fill="#ffe4d6" stroke-width="none" opacity="1" stroke="none"></path><path id="SvgjsPath2892" d="M95.646 197.62c0 0-5.074-1.609-7.083-2.379 -10.449-4.009-44.395-6.607-44.395-6.607s35.754 1.419 43.644 2.779c-0.458-4.767-3.017-20.004-3.017-20.004s5.149 16.815 6.409 21.057C91.878 194.734 95.646 197.62 95.646 197.62zM106.445 196.278c-0.089 0.073-0.191 0.168-0.302 0.268C106.256 196.461 106.358 196.372 106.445 196.278zM95.646 197.62c0 0 2.893 2.992 4.347 3.03 1.91 0.051 4.828-2.899 6.151-4.104 -1.265 0.957-4.159 1.391-5.31 1.436C99.504 198.033 95.646 197.62 95.646 197.62zM116.664 190.101c-1.545 0.248-4.386 0.789-4.386 0.789l2.287-14.89c-0.646 3.071-4.474 16.211-8.12 20.278 1.91-1.616 6.158-2.391 8.324-2.704 10.236-1.484 10.232-1.483 41.062-4.94C155.831 188.634 126.76 188.479 116.664 190.101z" fill="#e1ac8f" stroke-width="none" opacity="1" stroke="none"></path><path id="SvgjsPath2893" d="M195.417 199.778c-2.196-4.746-8.195-11.779-14.86-13.722 -8.239-2.403-26.837-5.308-33.733-6.923 -5.528-1.296-16.662-11.294-20.564-14.65 -0.7-0.6-1.273-1.839-1.287-2.76 -0.139-10.864 4.195-39.724 4.195-39.724H100 70.833c0 0 4.334 28.859 4.193 39.724 -0.011 0.921-0.587 2.16-1.285 2.76 -3.902 3.356-15.036 13.354-20.564 14.65 -6.897 1.615-25.495 4.619-33.733 7.022 -6.667 1.942-12.664 8.876-14.86 13.622 -3.708 8.008-4.584 22.5-4.584 35h100 100C200 222.278 199.123 207.786 195.417 199.778z" fill="none" stroke="#c27b55" stroke-width="1.5" opacity="1"></path></g><g id="svga-group-chinshadow-single"><path id="SvgjsPath3500" d="M103.705 170.189c5.292-1.558 13.31-7.012 20.631-12.852 0.352-6.636 1.433-15.887 2.396-23.284 -14.957-2.455-38.464-2.408-53.454 0.081 0.95 7.3 2.01 16.38 2.372 22.974 7.055 5.816 14.789 11.372 20.685 13.087C97.144 170.431 102.896 170.428 103.705 170.189z" fill="url(#SvgjsLinearGradient3501)" opacity="1"></path></g><g id="svga-group-clothes-single" ><path id="SvgjsPath3452" d="M42.77 235.757l1.323-60.852c0 0 10.194-2.487 16.635-6.313 17.496 21.953 69.451 17.333 78.336-0.62 1.489 0.525 2.721 1.197 4.262 1.713 5 3.386 9.213 4.494 9.213 4.494l0.935 61.685C139.188 236.052 42.77 235.757 42.77 235.757z" fill="#f5f4f5" stroke-width="none" opacity="1"></path><path id="SvgjsPath3453" d="M154.014 177.705c-4.236-0.719-7.611-1.697-9.452-3.544 -5.343 10.025-26.763 16.378-33.855 17.309 20.554-6.276 29.188-10.813 32.598-21.583 1.99 2.383 6.522 3.549 12.313 4.538L154.014 177.705zM52.67 174.381c1.454-0.312 2.18-1.234 3.623-1.593l-1.528-1.867c-3.114 2.234-8.971 3.305-15.9 4.424l0.188 3.738c3.956-0.79 7.817-1.788 11.429-3.323 7.483 8.485 19.168 12.659 31.06 14.387C66.624 186.562 58.07 180.511 52.67 174.381z" fill="#ffffff" stroke-width="none" opacity="1"></path><path id="SvgjsPath3454" d="M137.861 170.055c-5.929 11.361-50.74 24.595-76.009 0.866 -1.571 0.615-6.271 2.085-6.271 2.085 18.406 23.08 72.345 23.227 86.702-0.112C142.221 172.87 139.321 170.737 137.861 170.055z" fill="#dfdde2" stroke-width="none" opacity="1"></path><path id="SvgjsPath3455" d="M139.008 167.841c-10.087 18.575-62.578 21.204-78.239 0.625 -5.72 1.556-11.219 4.876-16.756 5.707l-1.243 61.584 110.703 0.107 -0.855-62.386c-3.369-0.707-6.501-2.737-9.254-3.894C141.842 168.945 140.55 168.37 139.008 167.841zM60.39 169.087c13.903 23.086 68.817 18.455 79.419 0.099 1.286 0.499 1.615 0.696 3.106 1.183 -10.982 21.208-65.306 27.967-87.525 1.147C55.546 171.476 58.823 169.629 60.39 169.087zM54.287 172.418c17.963 27.046 77.26 22.856 89.583-1.287 1.771 1.391 4.53 2.989 7.936 3.735l1.66 59.08 -110.377 0.016 1.904-58.299C47.777 174.264 52.247 173.232 54.287 172.418z" fill="#b8b6c9" stroke-width="none" opacity="1"></path><path id="SvgjsPath3456" d="M-4.529 235.566c-2.574-13.852-2.292-47.592 9.013-47.521 13.136-5.311 29.269-11.404 42.802-15.311 6.908-7.246 13.436-14.137 26.188-21.314 0.389 2.599 1.874 8.541 0.011 11.773 -1.355 2.352-5.783 5.576-9.554 8.368 -2.029 2.72-3.927 5.374-6.599 9.089 5.168 22.301 9.601 33.78 10.097 53.123 0 0-1.452 0.689 64.471 0.397 2.215-22.339 4.993-33.561 10.379-54.098 0 0-4.308-5.014-7.207-8.87 -2.054-1.997-8.36-7.532-8.84-8.651 -1.175-2.741-0.548-6.188 0.11-11.367 10.793 4.873 17 12.021 26.082 21.303 7.729 2.119 30.86 9.967 42.445 15.216 3.965-0.11 6.203 1.999 7.872 5.466 5.405 11.195 4.126 27.297 2.18 42.789C185.83 235.989 49.887 238.17-4.529 235.566z" fill="#3f82a4" stroke-width="none" opacity="1"></path><path id="SvgjsPath3457" d="M73.875 154.081c0.16 1.07 0.304 2.085 0.411 3.041 -0.218 0.266-17.212 23.353-17.336 23.525C61.126 171.148 67.1 161.305 73.875 154.081zM126.053 154.081c-0.159 1.07-0.184 2.085-0.291 3.041 0.218 0.266 16.931 22.469 17.054 22.642C138.391 170.914 132.828 161.305 126.053 154.081zM165.008 185.154c-4.28 6.231-5.194 8.382-9.879 14.557 1.071 0 2.799 0.166 3.87 0.166C162.663 193.592 162.67 190.393 165.008 185.154zM169.394 230.379c3.793-8.9 6.934-16.711 10.739-25.624l-1.247-2.014C175.717 211.896 172.354 221.199 169.394 230.379zM41.048 199.877c1.071 0 2.799-0.166 3.871-0.166 -4.685-6.175-5.599-6.561-9.878-12.792C37.377 192.158 37.384 193.592 41.048 199.877zM21.161 202.741l-1.247 2.014c3.806 8.913 4.765 16.724 8.559 25.624C25.512 221.199 24.33 211.896 21.161 202.741z" fill="#2a7195" stroke-width="none" opacity="1"></path><path id="SvgjsPath3458" d="M65.638 169.283c1.181-1.646 5.237-7.272 8.601-12.561C75.227 162.179 73.413 165.416 65.638 169.283zM125.74 156.36c2.553 4.396 5.562 8.772 8.664 12.803C126 165.336 125.435 161.423 125.74 156.36z" fill="#196185" stroke-width="none" opacity="1"></path><path id="SvgjsPath3459" d="M126.318 151.359c0.008-0.061 0.017-0.118 0.023-0.174 18.093 9.999 28.576 25.02 40.747 36.217 -0.448 0.721-1.228 1.193-1.687 1.905C152.656 179.609 146.599 164.946 126.318 151.359zM71.736 152.022c-15.034 8.213-36.242 33.357-38.318 35.269 0.448 0.724 0.691 0.577 1.15 1.288C47.314 178.882 50.793 169.283 71.736 152.022zM194.869 187.704c-1-0.799-24.646-10.039-42.59-14.969 33.698 16.299 45.587 18.545 51.471 24.321C203.367 196.057 202.586 187.489 194.869 187.704zM47.458 172.555c-13.524 3.914-30.839 10.098-42.975 15.491 -5.364 0.106-9.208 7.93-10.031 16.084C1.914 187.317-1.773 198.62 47.458 172.555z" fill="#5794b3" stroke-width="none" opacity="1"></path><path id="SvgjsPath3460" d="M206.6 210.062c-0.34-8.635-3.055-23.103-11.691-22.46 -0.714-0.61-20.822-9.767-42.285-15.611 -7.353-7.455-16.515-17.598-26.371-20.957 -0.711 6.428-1.477 10.622 0.216 12.714 2.241 2.439 4.93 4.879 7.568 6.522 4.616 6.136 8.139 9.778 8.139 9.778 -5.43 20.703-8.815 31.314-10.973 53.688H68.798c-2.157-22.373-5.543-32.984-10.973-53.688 0 0 3.522-3.643 8.139-9.778 2.639-1.644 5.327-4.083 7.568-6.522 1.692-2.092 0.927-6.286 0.216-12.714 -9.856 3.359-19.019 13.502-26.371 20.957 -21.463 5.845-41.571 15.001-42.285 15.611 -8.637-0.643-11.352 13.825-11.691 22.46 -0.411 10.487 1.435 24.938 1.585 25.938h210.029C205.165 234.999 207.011 220.549 206.6 210.062zM72.984 163.194c-2.258 2.233-3.658 3.181-6.473 5.282 4.829-6.271 4.341-5.433 7.708-11.229C74.37 159.739 73.433 162.751 72.984 163.194zM-3.172 234.028c-1.082-12.844-2.916-24.41 0.43-36.992 1.281-4.827 2.484-8.095 7.455-8.509 1.067 5.538 8.132 28.724 14.298 44.533 -6.226-24.192-5.311-18.81-8.219-28.452 -0.964-3.235-1.854-6.486-2.979-9.672 -0.783-2.214-1.65-4.387-2.262-6.653l40.433-14.865c-0.279 0.283-12.895 13.434-13.199 13.804 1.847 3.021 7.816 7.222 10.845 11.758 -12.436 1.174-18.508 3.173-23 3.84 0.331 0.919 9.061 25.353 9.976 27.656 -1.479-7.917-4.816-20.297-8.637-27.211 1.41-0.179 18.077-2.492 23.393-3.477 -1.476-2.854-8.043-8.437-11.559-12.619 20.646-18.162 25.422-27.402 39.593-35.454 0.15 1.509 0.443 3.011 0.55 4.519 -15.795 23.533-17.649 23.567-17.649 23.567 4.585 17.81 10.532 35.824 10.532 54.073L-3.172 234.028zM127.016 163.194c-0.448-0.443-1.386-3.455-1.235-5.947 3.367 5.797 2.879 4.958 7.708 11.229C130.674 166.375 129.273 165.428 127.016 163.194zM203.172 234.028l-70-0.154c0-18.249 5.947-36.264 10.532-54.073 0 0-1.854-0.034-17.649-23.567 0.106-1.508 0.399-3.01 0.55-4.519 14.171 8.052 18.946 17.292 39.593 35.454 -3.516 4.183-10.083 9.766-11.559 12.619 5.315 0.984 21.982 3.298 23.393 3.477 -3.82 6.914-7.157 19.294-8.637 27.211 0.915-2.304 9.645-26.737 9.976-27.656 -4.492-0.667-10.564-2.666-23-3.84 3.028-4.536 8.998-8.736 10.845-11.758 -0.305-0.37-12.92-13.521-13.199-13.804 0.001 0 40.433 14.865 40.433 14.865 -0.611 2.267-1.479 4.439-2.262 6.653 -1.125 3.186-2.015 6.437-2.979 9.672 -2.908 9.643-1.993 4.26-8.219 28.452 6.166-15.81 13.23-38.995 14.298-44.533 4.971 0.414 6.174 3.682 7.455 8.509C206.088 209.618 204.254 221.185 203.172 234.028z" fill="#0a5276" stroke-width="none" opacity="1"></path></g><g id="svga-group-head" ><g id="svga-group-ears-left" ><path id="SvgjsPath3418" d="M45.443 82.722c-1.469-2.433-6.648-7.545-10.31-6.61 -2.979 0.762-6.032 3.243-6.032 7.473 -0.001 6.553 1.496 9.338 2.501 12.311 0.856 2.53 3.915 7.167 5.761 8.964 2.273 2.208 5.957 9.35 6.404 10.079 0.705 1.154 1.877 2.988 4.043 3.057 3.29 0.104 7.085-2.105 7.323-3.488C56.42 107.009 49.263 89.052 45.443 82.722z" fill="#f0c7b1" stroke="#c27b55" stroke-width="1.5" opacity="1"></path><path id="SvgjsPath3419" d="M43.596 99.086c-0.142-0.558 0.007-1.495 0.152-2.4 0.131-0.826 0.255-1.605 0.18-2.157 -0.285-2.064-1.892-5.988-2.942-8.115 -1.208-2.446-4.117-5.528-6.568-6.322 -1.013-0.329-1.681 0.064-2.067 0.463 -0.284 0.293-0.347 0.637-0.254 0.678 0.093 0.041 0.304-0.244 0.61-0.513 0.25-0.22 0.617-0.408 1.122-0.369 -0.203 1.028-3.138 4.222-1.381 10.392 0.822 2.888 1.992 5.214 2.202 5.549 0.032 0.352 0.083 0.696 0.159 1.031 0.991 4.357 7.286 11.54 8.785 13.162 0.277 0.3 0.567 0.477 0.639 0.406 0.072-0.072-0.1-0.368-0.376-0.671 -1.48-1.611-7.734-8.777-8.69-12.981 -1.754-7.702 1.916-7.832 4.499-12.473 0.397 0.657 0.733 1.288 0.993 1.814 0.203 0.413 0.429 0.896 0.661 1.417 -0.458 0.729-5.059 6.055-3.889 10.317 0.433 1.572 3.779 3.598 5.073 4.153 0.712 0.306 0.979 0.763 1.289 1.291 0.359 0.613 0.767 2.796 1.95 3.298 0.241 0.103 0.458 0.146 0.651 0.146 0.334 0 0.587-0.128 0.774-0.28 0.019 0.267 0.018 0.612 0.008 0.93 -0.011 0.411 0.046 0.748 0.147 0.756s0.208-0.317 0.221-0.727c0.016-0.504 0.014-1.128-0.077-1.426 -0.265-0.88-1.076-1.871-1.934-2.921C44.688 102.503 43.815 99.947 43.596 99.086zM34.616 95.223c-2.322-6.84 0.993-12.744 1.514-13.684 0.908 0.787 2.662 1.841 3.314 2.87C36.33 89.804 34.811 86.051 34.616 95.223zM45.884 106.717c-1.072-0.455-1.431-2.555-1.778-3.147 -0.314-0.536-0.639-1.089-1.461-1.443 -0.179-0.077-0.376-0.194-0.578-0.328 -3.861-5.758 0.291-8.626 1.027-9.163 0.226 0.734 0.396 1.407 0.47 1.946 0.068 0.496-0.058 1.284-0.179 2.045 -0.15 0.944-0.306 1.92-0.145 2.553 0.24 0.941 1.14 3.529 2.01 4.594 0.772 0.945 1.564 1.919 1.835 2.713C46.97 106.645 46.604 107.022 45.884 106.717z" fill="#c27b55" stroke-width="none" opacity="1"></path></g><g id="svga-group-ears-right" ><path id="SvgjsPath3420" d="M154.295 82.722c1.469-2.433 6.648-7.545 10.311-6.61 2.979 0.762 6.031 3.243 6.031 7.473 0.002 6.553-1.496 9.338-2.5 12.311 -0.857 2.53-3.916 7.167-5.762 8.964 -2.273 2.208-5.957 9.35-6.404 10.079 -0.705 1.154-1.877 2.988-4.043 3.057 -3.291 0.104-7.086-2.105-7.324-3.488C143.318 107.009 150.475 89.052 154.295 82.722z" fill="#f0c7b1" stroke="#c27b55" stroke-width="1.5" opacity="1"></path><path id="SvgjsPath3421" d="M154.205 103.536c-0.857 1.05-1.668 2.041-1.934 2.921 -0.09 0.298-0.092 0.922-0.076 1.426 0.014 0.409 0.119 0.734 0.221 0.727s0.158-0.345 0.146-0.756c-0.01-0.317-0.01-0.663 0.01-0.93 0.186 0.152 0.439 0.28 0.773 0.28 0.193 0 0.41-0.043 0.65-0.146 1.184-0.502 1.592-2.686 1.951-3.298 0.311-0.528 0.576-0.985 1.289-1.291 1.293-0.555 4.639-2.581 5.072-4.153 1.17-4.262-3.432-9.588-3.889-10.317 0.232-0.522 0.457-1.004 0.66-1.417 0.26-0.526 0.596-1.157 0.994-1.814 2.582 4.641 6.252 4.771 4.498 12.473 -0.957 4.204-7.209 11.37-8.689 12.981 -0.275 0.303-0.447 0.599-0.377 0.671 0.072 0.07 0.361-0.106 0.639-0.406 1.5-1.622 7.795-8.805 8.785-13.162 0.076-0.334 0.129-0.679 0.16-1.031 0.209-0.334 1.379-2.661 2.201-5.549 1.758-6.17-1.178-9.364-1.381-10.392 0.504-0.039 0.871 0.149 1.123 0.369 0.305 0.269 0.518 0.553 0.609 0.513 0.094-0.041 0.029-0.385-0.254-0.678 -0.387-0.399-1.055-0.792-2.068-0.463 -2.451 0.794-5.359 3.876-6.568 6.322 -1.049 2.126-2.656 6.05-2.941 8.115 -0.074 0.552 0.049 1.331 0.18 2.157 0.145 0.906 0.293 1.843 0.152 2.4C155.924 99.947 155.051 102.503 154.205 103.536zM160.295 84.409c0.652-1.029 2.406-2.083 3.313-2.87 0.521 0.939 3.836 6.843 1.516 13.684C164.928 86.051 163.408 89.804 160.295 84.409zM152.652 106.486c0.271-0.794 1.064-1.768 1.836-2.713 0.869-1.065 1.77-3.653 2.01-4.594 0.16-0.632 0.006-1.608-0.145-2.553 -0.121-0.761-0.248-1.55-0.18-2.045 0.074-0.539 0.244-1.212 0.471-1.946 0.734 0.537 4.887 3.405 1.025 9.163 -0.201 0.134-0.398 0.251-0.578 0.328 -0.822 0.354-1.146 0.908-1.461 1.443 -0.346 0.592-0.705 2.692-1.777 3.147C153.135 107.022 152.768 106.645 152.652 106.486z" fill="#c27b55" stroke-width="none" opacity="1"></path></g><g id="svga-group-faceshape-wrap" ><g id="svga-group-faceshape-single" ><path id="SvgjsPath3497" d="M138.275 134.933c-7.56 7.762-25.273 22.52-34.57 25.257 -0.809 0.238-6.561 0.241-7.37 0.006 -10.402-3.025-26.524-18.002-34.545-25.284 -0.698-0.634-1.876-2.14-2.323-2.97 -6.875-12.77-18.452-54.948-18.462-54.995 -1.3-4.911-1.996-10.066-2.004-15.382C38.949 28.09 66.155 0.919 99.773 0.867c33.621-0.052 60.913 27.033 60.964 60.507 0.009 5.316-0.669 10.473-1.952 15.389 -0.015 0.047-11.729 42.121-18.293 55.052C140.06 132.667 138.942 134.247 138.275 134.933z" fill="#f0c7b1" stroke-width="none" opacity="1"></path><path id="SvgjsPath3498" d="M122.923 5.375c19.396 9.496 32.911 30.588 32.944 55.131 0.009 5.316-0.615 10.473-1.796 15.389 -0.013 0.047-10.79 42.121-16.829 55.053 -0.398 0.852-1.426 2.432-2.039 3.117 -6.955 7.762-23.252 22.52-31.805 25.258 -0.744 0.238-6.036 0.24-6.781 0.006 -9.57-3.025-24.402-18.002-31.782-25.285 -0.642-0.633-1.726-2.139-2.137-2.969 -6.325-12.77-16.976-54.948-16.985-54.996 -1.196-4.911-1.836-10.066-1.844-15.382C43.835 36.099 57.351 14.919 76.79 5.389c-22.202 9.066-37.828 30.804-37.789 56.176 0.008 5.316 0.704 10.471 2.004 15.382 0.01 0.047 11.587 42.226 18.462 54.995 0.447 0.83 1.625 2.336 2.323 2.97 8.021 7.282 24.144 22.259 34.545 25.284 0.809 0.235 6.562 0.232 7.37-0.006 9.297-2.737 27.011-17.495 34.57-25.257 0.667-0.686 1.784-2.266 2.217-3.118 6.564-12.932 18.278-55.005 18.293-55.052 1.283-4.916 1.961-10.072 1.952-15.389C160.699 36.059 145.075 14.408 122.923 5.375z" fill="#e8b9a0" stroke-width="none" opacity="1"></path><path id="SvgjsPath3499" d="M138.275 134.933c-7.56 7.762-25.273 22.52-34.57 25.257 -0.809 0.238-6.561 0.241-7.37 0.006 -10.402-3.025-26.524-18.002-34.545-25.284 -0.698-0.634-1.876-2.14-2.323-2.97 -6.875-12.77-18.452-54.948-18.462-54.995 -1.3-4.911-1.996-10.066-2.004-15.382C38.949 28.09 66.155 0.919 99.773 0.867c33.621-0.052 60.913 27.033 60.964 60.507 0.009 5.316-0.669 10.473-1.952 15.389 -0.015 0.047-11.729 42.121-18.293 55.052C140.06 132.667 138.942 134.247 138.275 134.933z" fill="none" stroke="#c27b55" stroke-width="1.5" opacity="1"></path></g></g><g id="svga-group-mouth-single" ><path id="SvgjsPath3422" d="M99.956 142.599c-5.159 0-9.49-3.032-9.49-3.032 9.005 1.084 20.036-0.644 20.036-0.644S106.471 142.599 99.956 142.599z" fill="#e8b9a0" stroke-width="none" opacity="1"></path><path id="SvgjsPath3423" d="M99.958 139.593c-3.336 0.024-10.989-1.567-13.867-2.818 -1.703-0.736-4.649-3.291-6.698-4.591 -0.787-0.5-0.46-1.466 0.578-1.505 2.524-0.095 5.769 0.939 7.288 1.121 3.184 0.372 7.201 1.759 12.647 1.759 4.046 0 8.469-1.103 11.289-1.509 1.696-0.244 5.619-1.319 8.378-1.439 1.041-0.048 1.465 0.745 0.695 1.262 -2.156 1.464-5.613 4.15-7.478 4.902C109.775 137.991 102.966 139.572 99.958 139.593z" fill="#000000" stroke-width="none" opacity="0.5"></path><path id="SvgjsPath3424" d="M83.82 130.791c0 0 0.355 2.327 0.896 2.992 0.746 0.915 5.281 2.794 7.092 3.057 1.232 0.176 3.49 0.456 4.732 0.588 1.347 0.143 2.104 0.014 3.461-0.021 1.462-0.037 2.71 0.126 4.137-0.13 1.017-0.183 3.989-0.8 4.96-1.098 0.746-0.231 2.25-0.615 2.932-0.951 0.567-0.276 2.317-1.278 2.664-1.721 0.454-0.581 0.876-2.639 0.876-2.639L83.82 130.791z" fill="#ffffff" stroke-width="none" opacity="1"></path><path id="SvgjsPath3425" d="M90.407 131.193c0 0-0.646 5.066-0.705 5.154 -0.058 0.088-0.22-5.154-0.22-5.154H90.407zM93.131 131.757l0.575 5.37 0.372-5.37H93.131zM99.482 132.549l0.718 4.879 0.464-4.963L99.482 132.549zM105.054 131.524c1.207 0.084 1.611 5.223 1.611 5.223l0.166-5.223H105.054zM109.679 130.896c0 0 0.479 4.904 0.547 4.812 0.063-0.093 0.19-4.812 0.19-4.812H109.679zM86.324 130.894l0.351 4.01 0.352-4.01H86.324zM112.989 130.486l0.107 4.2 0.535-4.231L112.989 130.486z" fill="#000000" stroke-width="none" opacity="0.1"></path><path id="SvgjsPath3426" d="M120.915 130.597c-1.51-0.389-4.676-0.119-6.277-0.281 -2.271-0.229-6.874-0.393-9.168-0.342 -1.44 0.032-4.278 0.438-5.717 0.464 -1.477 0.026-4.417-0.441-5.893-0.451 -2.341-0.011-7.056 0.205-9.353 0.513 -1.585 0.212-4.825-0.108-6.095 0.455 -0.293 0.131-0.117 0.719 0 0.941 1.071 2.003 5.197 4.264 8.767 6.188 4.587 2.474 9.41 3.241 13.203 3.242 5.004 0.003 10.898-2.155 15.829-5.407 2.182-1.438 4.943-2.923 5.4-4.31C121.845 130.909 121.306 130.698 120.915 130.597zM99.893 137.525c-3.086 0.019-10.246-1.178-13.269-2.392 -1.813-0.728-4.59-2.471-6.481-3.556 -0.73-0.416 6.65 1.117 8.059 1.267 2.94 0.311 6.656 0.754 11.69 0.754 3.737 0 7.829-0.205 10.437-0.543 1.567-0.204 9.693-2.062 8.987-1.63 -2.001 1.22-5.367 3.084-7.513 3.899C109.081 136.362 102.673 137.503 99.893 137.525z" fill="#da7c87" stroke-width="none" opacity="1"></path><path id="SvgjsPath3427" d="M83.833 135.39c3.211 0.502 10.441 3.463 16.517 3.303 6.333-0.167 15.733-4.55 16.972-4.069 0.468 1.149-12.22 6.698-16.972 6.786C96.085 141.487 82.49 136.695 83.833 135.39zM99.482 132.549c3.857-0.04 8.569-0.425 11.745-1.604 -3.616-0.971-8.605 0.11-11.475 0.161 -3.722 0.067-6.834-0.896-10.281 0.056C92.764 132.032 96.149 132.584 99.482 132.549z" fill="#e28c96" stroke-width="none" opacity="1"></path><path id="SvgjsPath3428" d="M97.309 140.089c-2.334-0.406-2.413-0.571-0.201-0.402 1.353 0.102 2.705 0.126 4.02 0.028 0.174-0.014 0.347-0.027 0.52-0.047 1.48-0.15 3.075-0.523 4.672-1.007 2.499-0.76 2.544-0.575 0.065 0.428 -1.817 0.735-3.511 1.27-4.712 1.381l-0.074 0.007C100.573 140.554 99.034 140.392 97.309 140.089z" fill="#e99ca5" stroke-width="none" opacity="1"></path><path id="SvgjsPath3429" d="M77.08 133.202c0 0-0.664-1.505-0.57-2.065 0.129-0.788 1.802-2.347 1.802-2.347s-1.012 1.795-1.168 2.361C76.992 131.699 77.08 133.202 77.08 133.202zM122.869 133.394c0 0 0.722-1.636 0.622-2.245 -0.142-0.855-1.96-2.55-1.96-2.55s1.102 1.951 1.271 2.566C122.965 131.76 122.869 133.394 122.869 133.394z" fill="#c27b55" stroke-width="none" opacity="1"></path></g><g id="svga-group-eyes-left" ><g id="svga-group-eyesback-left"><path id="SvgjsPath3236" d="M62.381 89.681c2.428 2.331 6.769 2.584 13.004 2.584 6.229 0 9.858-1.361 11.353-4.016 1.805-3.206-3.878-9.816-12.912-9.816C68.021 78.433 55.521 83.098 62.381 89.681z" fill="url(#SvgjsRadialGradient3237)" opacity="1"></path></g><g id="svga-group-eyesiriswrapper-left" transform="translate(0.5 1.5)"><g id="svga-group-eyesiriscontrol-left" ><g id="svga-group-eyesiris-left" ><path id="SvgjsPath3504" d="M81.235 86.526c-1.086 5.079-5.203 8.071-9.202 6.676 -3.996-1.394-6.356-6.647-5.269-11.727 1.085-5.083 5.211-8.075 9.208-6.679C79.965 76.189 82.322 81.442 81.235 86.526z" fill="#4d3623" stroke="#1f1105" stroke-width="0.5" opacity="1"></path><path id="SvgjsPath3505" d="M81.056 84.591c-0.553 5.639-3.844 8.577-7.441 8.271 -3.323-0.285-6.293-3.404-6.57-8.791 1.15-0.42 2.676 0.263 4.014 0.002 -0.003 0.062-0.02 0.117-0.021 0.18 -0.109 2.068 1.195 3.87 2.908 4.017 1.72 0.146 3.197-1.419 3.303-3.486 0.012-0.269-0.001-0.534-0.033-0.789C78.409 84.225 79.869 83.999 81.056 84.591z" fill="#5c4633" stroke-width="none" opacity="1"></path><path id="SvgjsPath3506" d="M75.084 80.814c-1.65-0.6-3.334 0.599-3.76 2.69 -0.426 2.081 0.567 4.26 2.217 4.861 1.65 0.603 3.333-0.598 3.764-2.68C77.733 83.595 76.737 81.417 75.084 80.814z" fill="#000000" stroke-width="none" opacity="0.9"></path><path id="SvgjsPath3507" d="M75.084 80.814c-1.65-0.6-3.334 0.599-3.76 2.69 -0.426 2.081 0.567 4.26 2.217 4.861 1.65 0.603 3.333-0.598 3.764-2.68C77.733 83.595 76.737 81.417 75.084 80.814z" fill="none" stroke="#1f1105" stroke-width="0.75" opacity="1"></path><path id="SvgjsPath3508" d="M70.451 89.818c-0.157 0.695-1.008 0.399-0.854-0.298 0.153-0.673 0.562-1.086 0.818-1.679 0.276-0.633 1.039-0.067 0.762 0.567C70.965 88.897 70.572 89.273 70.451 89.818L70.451 89.818zM71.807 88.71c-0.234 0.348-0.542 1.638-0.675 2.06 -0.211 0.672 0.642 0.961 0.851 0.298 0.073-0.229 0.32-1.373 0.45-1.563C72.799 88.958 72.18 88.16 71.807 88.71L71.807 88.71zM73.646 92.031c0.459-0.676 0.413-1.45 0.403-2.292 -0.007-0.723-0.888-0.724-0.882 0 0.007 0.465 0.115 1.114-0.146 1.498C72.65 91.781 73.271 92.579 73.646 92.031L73.646 92.031zM74.545 89.599c0.009 0.697 0.074 1.377 0.236 2.044 0.169 0.69 1.021 0.396 0.854-0.298 -0.142-0.576-0.2-1.144-0.205-1.746C75.421 88.875 74.54 88.875 74.545 89.599L74.545 89.599z" fill="#ffffff" stroke-width="none" opacity="0.5"></path><path id="SvgjsPath3509" d="M79.246 82.364c-0.868 0.663-2.174 0.066-2.916-1.334 -0.738-1.402-0.63-3.077 0.242-3.738 0.868-0.667 2.175-0.068 2.91 1.333C80.225 80.027 80.118 81.7 79.246 82.364z" fill="#ffffff" stroke-width="none" opacity="0.8"></path></g></g></g><g id="svga-group-eyesfront-left"><path id="SvgjsPath3261" d="M54.8 79.995c0 13.807 8.507 30.004 19 30.004s19-11.193 19-25 -8.507-25-19-25S54.8 66.188 54.8 79.995zM62.381 89.681c-6.859-6.583 5.641-11.248 11.444-11.248 9.034 0 14.717 6.61 12.912 9.816 -1.494 2.654-5.123 4.016-11.353 4.016C69.149 92.265 64.809 92.011 62.381 89.681z" fill="#f0c7b1" stroke-width="none" opacity="1"></path><path id="SvgjsPath3262" d="M58.697 84.55c-0.075 7.456 8.647 13.464 18.038 13.428 9.389-0.043 16.987-6.116 16.962-13.573 -0.023-7.456-7.647-13.465-17.04-13.426C67.265 71.021 58.799 74.35 58.697 84.55zM73.825 78.633c9.034 0 14.718 6.542 12.912 9.716 -1.494 2.627-5.123 3.975-11.353 3.975 -6.235 0-10.576-0.251-13.005-2.558C55.521 83.25 68.021 78.633 73.825 78.633z" fill="url(#SvgjsRadialGradient3263)" opacity="1"></path><path id="SvgjsPath3267" d="M62.381 89.681c2.428 2.331 6.769 2.584 13.004 2.584 6.229 0 9.858-1.361 11.353-4.016 1.805-3.206-3.878-9.816-12.912-9.816C68.021 78.433 55.521 83.098 62.381 89.681z" fill="url(#SvgjsRadialGradient3268)" opacity="1"></path><path id="SvgjsPath3271" d="M89.188 82.843c0.345-0.344-4.745-7.529-13.379-7.832 -9.13-0.319-16.789 6.017-16.789 6.017s8.302-6.009 16.569-5.565C85.2 75.98 88.916 83.114 89.188 82.843z" fill="#c27b55" stroke-width="none" opacity="1"></path><path id="SvgjsPath3272" d="M86.479 88.878l0.335-2.293c-3.319-8.705-15.518-11.145-25.718-2.11 -0.359 0.462-0.768 0.821-0.468 1.832l2.711 4.484c-2.466-2.355-3.742-4.143-4.917-5.817l-0.952-0.498c12.896-12.359 27.1-9.455 31.717 1.537l-1.12-0.167L86.479 88.878zM82.57 91.345c-4.308 0.56-7.537 1.078-13.275 0.76C72.953 92.963 78.842 92.698 82.57 91.345z" fill="#582311" stroke-width="none" opacity="1"></path></g></g><g id="svga-group-eyes-right" ><g id="svga-group-eyesback-right"><path id="SvgjsPath3244" d="M137.22 89.681c-2.428 2.331-6.769 2.584-13.004 2.584 -6.229 0-9.858-1.361-11.353-4.016 -1.805-3.206 3.878-9.816 12.912-9.816C131.579 78.433 144.079 83.098 137.22 89.681z" fill="url(#SvgjsRadialGradient3245)" opacity="1"></path></g><g id="svga-group-eyesiriswrapper-right" transform="translate(-0.5 1.5)"><g id="svga-group-eyesiriscontrol-right" ><g id="svga-group-eyesiris-right" ><path id="SvgjsPath3510" d="M133.235 86.526c-1.086 5.079-5.202 8.071-9.201 6.676 -3.997-1.394-6.356-6.647-5.27-11.727 1.086-5.083 5.212-8.075 9.208-6.679C131.965 76.189 134.322 81.442 133.235 86.526z" fill="#4d3623" stroke="#1f1105" stroke-width="0.5" opacity="1"></path><path id="SvgjsPath3511" d="M133.056 84.591c-0.553 5.639-3.844 8.577-7.44 8.271 -3.322-0.285-6.294-3.404-6.57-8.791 1.151-0.42 2.677 0.263 4.014 0.002 -0.003 0.062-0.019 0.117-0.021 0.18 -0.108 2.068 1.195 3.87 2.909 4.017 1.72 0.146 3.197-1.419 3.302-3.486 0.013-0.269-0.001-0.534-0.032-0.789C130.409 84.225 131.869 83.999 133.056 84.591z" fill="#5c4633" stroke-width="none" opacity="1"></path><path id="SvgjsPath3512" d="M127.084 80.814c-1.65-0.6-3.335 0.599-3.76 2.69 -0.427 2.081 0.567 4.26 2.217 4.861 1.65 0.603 3.334-0.598 3.765-2.68C129.733 83.595 128.736 81.417 127.084 80.814z" fill="#000000" stroke-width="none" opacity="0.9"></path><path id="SvgjsPath3513" d="M127.084 80.814c-1.65-0.6-3.335 0.599-3.76 2.69 -0.427 2.081 0.567 4.26 2.217 4.861 1.65 0.603 3.334-0.598 3.765-2.68C129.733 83.595 128.736 81.417 127.084 80.814z" fill="none" stroke="#1f1105" stroke-width="0.75" opacity="1"></path><path id="SvgjsPath3514" d="M122.451 89.818c-0.157 0.695-1.008 0.399-0.854-0.298 0.153-0.673 0.562-1.086 0.817-1.679 0.276-0.633 1.039-0.067 0.762 0.567C122.965 88.897 122.571 89.273 122.451 89.818L122.451 89.818zM123.807 88.71c-0.234 0.348-0.542 1.638-0.675 2.06 -0.211 0.672 0.642 0.961 0.851 0.298 0.072-0.229 0.32-1.373 0.449-1.563C124.8 88.958 124.18 88.16 123.807 88.71L123.807 88.71zM125.646 92.031c0.46-0.676 0.414-1.45 0.403-2.292 -0.007-0.723-0.889-0.724-0.882 0 0.008 0.465 0.115 1.114-0.146 1.498C124.65 91.781 125.271 92.579 125.646 92.031L125.646 92.031zM126.545 89.599c0.009 0.697 0.074 1.377 0.236 2.044 0.17 0.69 1.021 0.396 0.854-0.298 -0.143-0.576-0.201-1.144-0.205-1.746C127.422 88.875 126.54 88.875 126.545 89.599L126.545 89.599z" fill="#ffffff" stroke-width="none" opacity="0.5"></path><path id="SvgjsPath3515" d="M131.246 82.364c-0.868 0.663-2.174 0.066-2.916-1.334 -0.738-1.402-0.63-3.077 0.243-3.738 0.867-0.667 2.174-0.068 2.909 1.333C132.225 80.027 132.118 81.7 131.246 82.364z" fill="#ffffff" stroke-width="none" opacity="0.8"></path></g></g></g><g id="svga-group-eyesfront-right"><path id="SvgjsPath3282" d="M125.801 59.999c-10.493 0-19 11.193-19 25s8.507 25 19 25 19-15.513 19-29.319S136.294 59.999 125.801 59.999zM124.216 92.265c-6.229 0-9.858-1.361-11.353-4.016 -1.805-3.206 3.878-9.816 12.912-9.816 5.804 0 18.304 4.665 11.444 11.248C134.792 92.011 130.451 92.265 124.216 92.265z" fill="#f0c7b1" stroke-width="none" opacity="1"></path><path id="SvgjsPath3283" d="M122.943 70.979c-9.393-0.039-17.017 5.971-17.04 13.426 -0.025 7.458 7.573 13.53 16.962 13.573 9.391 0.037 18.113-5.972 18.038-13.428C140.802 74.35 132.336 71.021 122.943 70.979zM137.221 89.766c-2.429 2.307-6.77 2.558-13.005 2.558 -6.229 0-9.858-1.348-11.353-3.975 -1.806-3.173 3.878-9.716 12.912-9.716C131.579 78.633 144.08 83.25 137.221 89.766z" fill="url(#SvgjsRadialGradient3284)" opacity="1"></path><path id="SvgjsPath3288" d="M137.22 89.681c-2.428 2.331-6.769 2.584-13.004 2.584 -6.229 0-9.858-1.361-11.353-4.016 -1.805-3.206 3.878-9.816 12.912-9.816C131.579 78.433 144.079 83.098 137.22 89.681z" fill="url(#SvgjsRadialGradient3289)" opacity="1"></path><path id="SvgjsPath3292" d="M110.413 82.843c-0.345-0.344 4.745-7.529 13.379-7.832 9.13-0.319 16.789 6.017 16.789 6.017s-8.302-6.009-16.569-5.565C114.4 75.98 110.685 83.114 110.413 82.843z" fill="#c27b55" stroke-width="none" opacity="1"></path><path id="SvgjsPath3293" d="M111.533 85.845l-1.12 0.167c4.617-10.991 18.82-13.896 31.717-1.537l-0.952 0.498c-1.175 1.674-2.451 3.462-4.917 5.817l2.711-4.484c0.3-1.01-0.108-1.37-0.468-1.832 -10.2-9.035-22.398-6.595-25.718 2.11l0.335 2.293L111.533 85.845zM130.306 92.104c-5.738 0.318-8.968-0.2-13.275-0.76C120.759 92.698 126.647 92.963 130.306 92.104z" fill="#582311" stroke-width="none" opacity="1"></path></g></g><g id="svga-group-facehighlight-single" ><path id="SvgjsPath2882" d="M141 113.974c0.035 22.622-18.292 40.994-40.938 41.025 -22.642 0.037-41.028-18.273-41.063-40.9 -0.035-22.62 18.292-41.064 40.937-41.1C122.579 72.964 140.967 91.349 141 113.974z" fill="url(#SvgjsRadialGradient2883)" opacity="1"></path><path id="SvgjsPath2886" d="M137.5 53.999c0 20.711-16.789 37.5-37.499 37.5 -20.711 0-37.501-16.789-37.501-37.5s16.79-37.5 37.501-37.5C120.711 16.499 137.5 33.288 137.5 53.999z" fill="url(#SvgjsRadialGradient2887)" opacity="1"></path></g><g id="svga-group-eyebrows-left" ><path id="SvgjsPath2907" d="M54 74.189c9.954-9.974 16.761-5.915 30.589-3.264 0.845 0.162 6.32 1.539 5.31 3.469 -0.483 0.924-2.036 0.814-2.903 0.798C73.308 74.936 66.652 65.197 54 74.189z" fill="#2a232b" stroke-width="none" opacity="1"></path></g><g id="svga-group-eyebrows-right" ><path id="SvgjsPath2908" d="M146 74.189c-9.953-9.974-16.761-5.915-30.589-3.264 -0.846 0.162-6.32 1.539-5.311 3.469 0.483 0.924 2.036 0.814 2.903 0.798C126.691 74.936 133.348 65.197 146 74.189z" fill="#2a232b" stroke-width="none" opacity="1"></path></g><g id="svga-group-nose-single" ><path id="SvgjsPath3408" d="M105.07 117.886c1.053 0 1.338 0.28 1.338 0.625 0 0.347-0.328 0.879-1.338 0.624 -1.109-0.276-3.046-0.148-3.046-0.148S104.018 117.886 105.07 117.886zM95.017 117.886c-1.054 0.001-1.337 0.282-1.337 0.628 -0.001 0.345 0.317 0.842 1.337 0.624 1.125-0.241 3.046-0.149 3.046-0.149S96.071 117.89 95.017 117.886zM108.609 114.148c0 0 1.458 1.654 1.154 3.403 -0.294 1.699-3.238 2.447-3.238 2.447s2.044-1.297 2.292-2.873C108.933 116.39 108.609 114.148 108.609 114.148zM90.617 112.446c0 0-1.063 2.316-0.755 3.727 0.558 2.547 3.625 3.565 3.625 3.565s-1.914-1.747-2.594-3.291C90.149 114.763 90.617 112.446 90.617 112.446z" fill="#c27b55" stroke-width="none" opacity="1"></path><path id="SvgjsPath3409" d="M105.019 115.38c1.021-0.761 1.124-1.195 0.912-1.479 -0.21-0.284-0.823-0.464-1.678 0.453 -0.942 1.012-2.991 1.758-2.991 1.758S103.997 116.143 105.019 115.38z" fill="#ffe4d6" stroke-width="none" opacity="1"></path></g><g id="svga-group-beardwrap" ><g id="svga-group-beard-single" ><path id="SvgjsPath3517" d="M150.78 88.74c-3.07 1.75-5.3 2.95-7.16 4.25 -11.33 7.55-12.48 25.22-14.44 41.87 -5.95-10.49-5.03-12.28-12.86-13.87 -9.61-2.1-12.81-3.02-16.32 1.62 -2.72-2.76-3.71-4.23-10.28-2.8 -11.7 2.31-12.28 2.01-15.77 9.5 -0.25 0.59-2.83 4.99-3.13 5.56 -0.57-3.98 0.05-4.11-1.58-12.88 -1.72-9.07-2.45-16.22-6.94-23.31 -4.34-6.03-13.78-10.55-18.4-12.1 0 7.61 0.73 18.98 0.87 20.44 1.75 17.86 8.72 45.74 21.16 57.45 10.4 9.39 21.98 8.75 34.11 8.75 6.25 0 18.06 0.43 25.25-3.06 9.77-3.78 16.54-14.45 20.4-24.19 6.72-16.43 10.41-32.87 10.41-59.39C152.55 87.92 151.86 88.07 150.78 88.74zM103.99 148.16c0.12-0.69 0.49-1.7 0.64-1.97 1.06-2.25 5.94-8.9 6.51-9.39 -6.47 1.93-14.08 2.15-22.05 0.27 1.9 2.27 6.39 8.14 6.92 11.09 -7.06-3.07-16.31-4.46-15.35-12.04 0.51-5.54 6.87-5.79 11.06-6.06 16.78-0.32 26.91-1.16 27.63 6.06C120.26 143.68 111.18 145.1 103.99 148.16z" fill="#2a232b" stroke-width="none" opacity="1"></path><path id="SvgjsPath3518" d="M156.1 86.58c0 26.52-3.69 42.96-10.41 59.39 -3.86 9.74-10.63 20.41-20.4 24.19 -7.19 3.49-19 3.06-25.25 3.06 -12.13 0-23.71 0.64-34.11-8.75 -12.44-11.71-19.41-39.59-21.16-57.45 -0.14-1.47-0.87-12.83-0.87-20.44 0.99 0.33 2.21 0.81 3.54 1.4C54.06 117.85 55.74 159.26 89 171c-1-2-4-6-4-6s6 4 9 6c0-1-0.98-4.88-0.98-4.88s4.78 3.43 7.78 4.43c0-1-1-4.08-1-4.08l5.23 3.45L113 163c0 0-2.5 5.25-3.5 7.25 3.6-0.97 9.48-5.3 9.48-5.3S118 168 118 169c29.21-16.43 29.26-51.2 33.61-80.71C152.42 87.91 153.48 87.57 156.1 86.58zM89.09 137.07c0.28 0.33 0.61 0.74 0.98 1.21 6.41 4.06 13.67 3.89 19.81 0.08 0.63-0.83 1.11-1.43 1.27-1.56C104.67 138.73 97.05 138.94 89.09 137.07zM100.74 167.83c-0.4-0.75-0.96-1.72-1.12-2.56 0-0.01-0.3-1.24-0.3-1.24 -0.02-0.09-0.38-2.55-0.31-2.55 -0.05-1.35-0.24-3.13-0.34-4.14C97.9 164.14 98.98 165.77 100.74 167.83zM104.36 142.34c-0.01 0 0.01 0.1-0.03 0.27 -0.31 1.44-2.68 4.35-2.9 6.13C101.35 145.78 104.21 143.34 104.36 142.34zM125.13 138.74c1.42 3.26 0.28 5.54-1.25 8.75C125.13 142.96 125.8 141.82 125.13 138.74zM119.63 128.99c1.45 2.19 1.98 2.59 3.75 9.25C121.73 134.59 121.56 133.57 119.63 128.99zM121.13 126.24c1.98 1.63 3.34 3.11 4.75 8.5C124.09 130.74 122.9 128.39 121.13 126.24zM103.88 164.74c0.55-5.94 2.31-9.27 6.25-13.75C107.23 155.53 105.38 159.63 103.88 164.74zM110.13 162.49c2.13-3.31 4.46-8.56 8.75-9.75 -1.54 0.74-2.28 1.58-3.68 3.27 0 0-0.76 0.89-1.88 2.54C112.52 159.71 111.13 161.5 110.13 162.49zM114.38 166.74c2.42-3.78 2.26-4.91 4.75-7.25C116.81 162.7 116.96 164.13 114.38 166.74zM112.63 154.49c1.26-4.02 3.23-7.66 7.25-9.75C116.83 147.09 114.47 151.09 112.63 154.49zM102.38 157.22c-0.96-2.91-0.36-5.47 0.25-8.49C102.46 152.63 102.01 154.66 102.38 157.22zM131.88 152.24c-2.85 3.86-5.51 5.68-9 7C126.17 157.3 127.59 156.02 131.88 152.24zM136.13 140.49c-1.54 7.31-7.2 11.9-13.75 15.5 6.9-5.64 9.47-8.88 9.47-8.88C133.28 145.49 135.05 143 136.13 140.49zM130.13 146.74c-0.05-6.28 1.03-10.04 4.5-15.5C132.47 136.59 130.94 142.19 130.13 146.74zM142.38 120.99c-0.05 2.66 0.02 7.63-7 17.25 0.02-0.05 4.82-10.56 4.76-10.56C141.49 124.53 141.83 123.29 142.38 120.99zM134.63 126.24c-0.15-5.53 1.26-6.58 3.5-12.75C137 119.35 135.56 120.36 134.63 126.24zM146.63 100.99c-1.17 6.98-2.54 8.72-7.25 19C141.37 111.46 143.46 109.24 146.63 100.99zM76.12 147.49c-1.61-3.29-2.62-5.37-1.25-8.75 -0.26 1.18-0.48 1.72 0.01 4.41C74.88 143.16 76.12 147.49 76.12 147.49zM76.62 138.24c1.5-6.29 2.77-7.73 3.75-9.25C77.74 135.05 78.98 133.17 76.62 138.24zM74.12 134.74c1.15-4.74 2.51-6.57 4.75-8.5C76.81 128.67 75.73 131.28 74.12 134.74zM89.87 150.99c4.37 4.74 5.65 8.51 6.25 13.75C94.7 159.56 92.88 155.95 89.87 150.99zM81.12 152.74c1.43 0.38 2.72 1.05 4.19 2.84 0 0 1.31 1.42 3.61 5.37 0.51 0.89 0.95 1.54 0.95 1.54 -1.29-1.32-5.1-6.47-5.08-6.47C82.99 153.87 82.42 153.38 81.12 152.74zM79.87 159.49c2.72 2.57 2.46 3.8 4.75 7.25C82.12 164.22 82.09 162.58 79.87 159.49zM80.12 144.74c1.89 0.97 3.04 1.99 3.71 2.93 0 0 0.46 0.6 0.89 1.21 1.53 2.38 1.84 3.1 2.65 5.61 -0.73-1.37-1.12-2.13-3.16-5.26 -0.43-0.59-0.87-1.17-0.87-1.17C82.13 146.38 81.03 145.44 80.12 144.74zM97.37 148.74c0.67 3.47 0.41 4.42-0.25 6.5C97.51 152.79 97.48 153.09 97.37 148.74zM96.87 142.74c1 0.7 2.15 1.68 2.88 3.9 0 0 1.34 3.22 0.37 7.88C100.19 153.04 99.97 146.06 96.87 142.74zM77.12 159.24c-3.87-1.31-6.51-3.75-9-7C71.41 155.21 73.53 157.08 77.12 159.24zM77.62 155.99c-6.51-3.61-12.1-8.05-13.75-15.5 0.94 2.24 2.1 4.23 4.27 6.63C68.14 147.12 70.84 150.26 77.62 155.99zM65.37 131.24c3.01 4.73 4.56 8.58 4.5 15.5C68.98 141.75 67.37 136.19 65.37 131.24zM64.62 138.24c-3.86-5.17-6.82-10.71-7-17.25C58.87 126.52 61.02 130.04 64.62 138.24zM61.87 113.49c2.42 6.51 3.65 7.56 3.5 12.75C64.61 120.55 63 119.8 61.87 113.49zM60.62 119.99c-3.79-8.25-5.96-11.29-7.25-19C56.88 110.14 58.73 111.91 60.62 119.99z" fill="#1b141c" stroke-width="none" opacity="1"></path><path id="SvgjsPath3519" d="M150.78 88.74c-3.07 1.75-5.3 2.95-7.16 4.25 -11.33 7.55-12.48 25.22-14.44 41.87 -5.95-10.49-5.03-12.28-12.86-13.87 -9.61-2.1-12.81-3.02-16.32 1.62 -2.72-2.76-3.71-4.23-10.28-2.8 -11.7 2.31-12.28 2.01-15.77 9.5 -0.25 0.59-2.83 4.99-3.13 5.56 -0.57-3.98 0.05-4.11-1.58-12.88 -1.72-9.07-2.45-16.22-6.94-23.31 -4.34-6.03-13.78-10.55-18.4-12.1 0 7.61 0.73 18.98 0.87 20.44 1.75 17.86 8.72 45.74 21.16 57.45 10.4 9.39 21.98 8.75 34.11 8.75 6.25 0 18.06 0.43 25.25-3.06 9.77-3.78 16.54-14.45 20.4-24.19 6.72-16.43 10.41-32.87 10.41-59.39C152.55 87.92 151.86 88.07 150.78 88.74zM136.74 159.03c-4.76 7.25-15.49 12.01-19.96 12.27 -1.55 0.17-8.89 1.47-25.86 0.75 -2.92-0.02-11.3-0.88-15.65-3.16 -16.93-7.07-24.7-35.57-28.17-53.69 -1.03-4.85-2.33-17.53-2.92-28.23 6.64 2.9 14.69 7.96 18.37 14.49 3.19 6.11 3.94 13.31 5.68 20.81 2.21 9.72 1.11 6.72 2.35 13.05 0.04 0.16 0.07 0.32 0.11 0.47 9.23-14.36 4.63-12.18 19.2-15.18 4.51-1.1 7-1.32 10.11 2.4 3.87-4.58 6.28-3.27 16.14-1.2 7.81 1.73 5.93 2.91 12.33 12.65 0.25 0.38 0.76 1.19 0.84 1.34 0.57-2.28 0.85-5.97 1.5-9.47 0.19-1 3.43-16.39 4.59-19.86 3.05-9.63 7.85-12.19 15.67-17.21 1.03-0.73 1.96-1.02 4.76-2.3C154.39 110.33 150.55 139.83 136.74 159.03zM110.01 129.33c-4.89-0.08-5.82 0.4-18.27-0.03 -3.78 0.06-7.55 0.12-9.99 2.5 -2.92 2.67-4.44 10.55 5.77 14.03 3.29 1.04 8.14 2.54 8.94 2.88 0-3.24-5.72-10.27-6.63-11.3 9.19 2.3 17.44 1 20.59-0.27 -1.4 1.52-6.88 8.4-6.88 11.57 8.75-2.92 13.75-3.65 15.99-8.13C121.65 136.73 120.54 129.16 110.01 129.33zM103.99 148.16c0.12-0.69 0.49-1.7 0.64-1.97 1.06-2.25 5.94-8.9 6.51-9.39 -6.47 1.93-14.08 2.15-22.05 0.27 1.9 2.27 6.39 8.14 6.92 11.09 -7.06-3.07-16.31-4.46-15.35-12.04 0.51-5.54 6.87-5.79 11.06-6.06 16.78-0.32 26.91-1.16 27.63 6.06C120.26 143.68 111.18 145.1 103.99 148.16z" fill="#000000" stroke-width="none" opacity="1"></path></g></g><g id="svga-group-mustache-single" ><path id="SvgjsPath3491" d="M100,18.13L100,18.13L100,18.13L100,18.13z" fill="#2a232b" stroke-width="none" opacity="1"></path></g><g id="svga-group-hair-front" ><path id="SvgjsPath3522" d="M44.974,94.895c-2.423-8.815-3.728-16.533-5.54-24.585l0.083-0.019c-0.686-1.689-3.162-15.06-3.185-15.204c-2.525-17.77,4.993-18.784,4.84-26.198c3.165,1.585,6.242,0.799,9.019-1.365c-2.918-1.499-1.997-1.736-5.872-4.095c2.731-0.472,4.326,0.165,6.646,0.454c-1.983-1.983-5.875-6.028-8.404-5.492l-0.165-0.354c3.661-2.857,8.548,3.091,12.954,1.48C55.483,3.144,79.417-0.256,85.242-2.689c7.755-2.951,15.856-9.441,21.553-10.021c-3.225,3.241-5.2,8.449-5.347,12.358c4.698-4.486,5.03-4.355,12.151-12.264c0,6.364-1.763,7.163-4.051,10.898c6.211-4.07,13.955-15.489,25.881-17.235l0.131,0.37c-4.298,2.532-7.624,6.804-9.898,12.708c2.257-2.726,5.451-5.683,8.986-6.218l0.133,0.369c-2.215,1.325-6.554,5.742-7.547,13.138c4.381-4.893,11.35-8.948,16.134-10.48l0.187,0.346c-4.392,3.573-6.153,9.828-7.146,15.146c3.08-4.58,4.872-5.624,8.747-7.548c-1.247,1.865-1.166,1.539-2.158,3.566c2.396,6.123,10.313,6.361,11.666,17.059c1.63-1.424,2.277-1.781,4.151-3.092l0.282,0.272c-1.408,2.187-2.569,6.06-3.342,8.652c2.78-2.123,7.073-3.687,10.096-4.778l0.211,0.328c-2.551,2.593-5.648,6.546-6.162,10.834c1-0.592,1.048-0.524,2.35-1.466c0,3.081,0.105,2.688,0.127,4.105c1.257-1.125,1.45-1.282,2.276-2.181c-0.183,32.362-1.845,25.912-6.317,48.466c-0.784,3.963-2.171,10.883-3.061,14.207l-6.049,1.039c1.87-22.394-0.093-17.512,1.267-31.604c2.012-20.779-14.804-37.812-37.025-32.237c-4.496,1.128-22.44,1.127-26.934,0c-24.547-6.163-33.391,8.18-36.026,33.278c-1.291,12.318-1.607,8.161,0.267,30.563L44.974,94.895z" fill="#2a232b" stroke-width="none" opacity="1" stroke="none"></path><path id="SvgjsPath3523" d="M162.376,34.359c-0.021-1.418-0.127-1.024-0.127-4.105c-1.302,0.941-1.35,0.874-2.35,1.466c0.514-4.288,3.611-8.241,6.162-10.834l-0.211-0.328c-3.022,1.092-7.315,2.655-10.096,4.778c0.772-2.592,1.934-6.465,3.342-8.652l-0.282-0.272c-1.874,1.311-2.521,1.668-4.151,3.092c-1.353-10.697-9.27-10.936-11.666-17.059c0.992-2.027,0.911-1.701,2.158-3.566c-3.875,1.924-5.667,2.968-8.747,7.548c0.993-5.318,2.755-11.573,7.146-15.146l-0.187-0.346c-4.784,1.532-11.753,5.587-16.134,10.48c0.993-7.396,5.332-11.813,7.547-13.138l-0.133-0.369c-3.535,0.535-6.729,3.493-8.986,6.218c2.274-5.904,5.601-10.176,9.898-12.708l-0.131-0.37c-11.926,1.746-19.67,13.165-25.881,17.235c2.288-3.735,4.051-4.535,4.051-10.898c-7.121,7.909-7.453,7.778-12.151,12.264c0.146-3.909,2.122-9.118,5.347-12.358c-5.696,0.58-13.797,7.069-21.553,10.021C79.417-0.256,55.483,3.144,55.35,19.518c-4.406,1.611-9.293-4.337-12.954-1.48l0.165,0.354c2.529-0.537,6.421,3.508,8.404,5.492c-2.319-0.289-3.915-0.926-6.646-0.454c3.875,2.359,2.954,2.596,5.872,4.095c-2.777,2.164-5.854,2.95-9.019,1.365c0.153,7.415-7.366,8.429-4.84,26.198c0.023,0.144,2.499,13.515,3.185,15.204l-0.083,0.019c1.812,8.052,3.117,15.771,5.54,24.585L45,94.899c-0.661-16.442-11.02-39.816-4.941-54.788C40.852,38.156,43.92,33,43.92,33s9.627-1.264,10.08-5c0,0-2-1-3-2c2,1,2-2,4-1c0-2-3-1-3-3c2,0,4,0,6,2c-1-5,0-10,4-13C72,3,85,4,95-4c-1,5-2,10-2,15c6-3,8-9,13-13c1,4-1,9-1,13c3-7,7-14,16-16c-4,4-4,10-4,15c0-4,4-6,5-9c0,4,0,8,0,12c2-6,6-9,11-11c-4,4-3,8-4,13c3-3,7-4,10-7c3,6,1,11,1,17c1-5,6-8,9-12c1,5,1,10,0,15c1-3,3-5,4-8c0,4.86-0.668,9.062-1.98,13.142c1.255-1.452,3.304-2.111,3.98-4.142c0,4.325,0,7.904,0,12.027c0.58-1.192,2.29-1.608,3-3.027c-0.854,3.413-0.254,6.103-0.059,9.302c0.371-1.96,2.258-3.162,2.94-4.967c0.04-0.778,0.081-1.557,0.118-2.335c0.229,0.912,0.135,1.664-0.118,2.335c-0.912,17.771-2.593,35.516-6.256,52.628l0.648-0.111c0.89-3.324,2.276-10.244,3.061-14.207c4.473-22.554,6.135-16.104,6.317-48.466C163.826,33.078,163.633,33.235,162.376,34.359z" fill="#3a353a" stroke-width="none" opacity="1" stroke="none"></path><path id="SvgjsPath3524" d="M167.779,19.695c-4.949,0.834-8.406,2.438-11.05,4.25c0.385-1.005,2.193-6.67,4.14-9.05c-2.99,1.333-4.72,2.763-5.72,3.51c0-1.032-0.398-2.224-0.59-2.84c-0.189-0.515-0.348-1.117-1.271-2.62c-5.171-7.296-5.494-4.244-9.729-9.83c0.772-1.811,1.889-3.572,3.29-5.03c-3.908,0.555-5.965,2.075-8.44,4.51c-0.04,0.04-0.07,0.08-0.1,0.12c1.551-6.126,4.59-11.437,10.56-13.43c-7.384-0.268-16.525,5.192-21.12,10.64c1.984-6.381,4.646-9.421,8.601-12.25c-2.846-0.421-5.635,0.742-7.841,2.58c2.541-4.397,6.317-7.899,9.351-9.53c-0.431-0.01-0.94-0.04-1.5,0c-0.777-0.199-5.479,0.566-7.16,1.29c-8.329,3.252-14.389,10.822-16.99,13.28c1.916-3.098,2.01-5.298,1.66-8.52c-0.655,0.563-11.615,11.055-11.75,11.19c0.777-4.309,2.245-6.937,5.02-10.79c-4.947-0.926-17.332,7.217-25.01,9.39c-8.044,2.179-28.004,6.723-27.09,22.7c-4.295,0.819-10.584-6.077-13.88-0.29c2.646-1.57,6.151,2.21,8.59,4.37c-1-0.163-4.343-0.948-5.96,0.13c1.894,0.735,3.55,2.932,5.89,4.1c0.03,0.01,0.06,0.02,0.09,0.04c-2.139,1.128-4.667,2.034-6.99,1.39c-0.35-0.1-0.58-0.16-0.58-0.17c-0.27-0.12-0.56-0.24-0.87-0.38h-0.01l-0.01-0.01c-0.13-0.07-0.26-0.14-0.4-0.21c0.695,5.608-7.817,10.155-6.88,22.02c0.385,7.301,4.949,29.508,10.686,44.566l0.483,0.144c-2.392-8.626-3.777-16.74-5.569-24.701c-0.156,0-3.073-15.044-3.1-15.21c-2.506-17.631,4.994-18.91,4.85-25.84c3.121,1.561,6.532,0.436,9.18-1.73c-3.118-1.551-2.453-1.988-5.68-3.95c2.163-0.374,4.803,0.483,6.62,0.6c-2.346-2.346-6.299-6.51-8.98-5.94c3.568-2.785,8.497,3.271,13.03,1.46c0-16.383,23.723-19.635,29.77-22.16c7.271-2.766,16.283-9.476,20.939-9.95c-2.44,2.458-5.02,7.901-5.02,12.58c4.834-4.638,5.31-4.615,12.16-12.22c0,6.014-2.247,7.088-4.431,10.97c6.414-3.698,14.179-15.828,26.49-17.63c-5.154,3.037-8.435,8.325-10.41,13.97c2.352-3.059,5.8-6.53,9.63-7.11c-2.009,1.202-6.861,5.782-7.72,13.93c4.345-5.114,11.586-9.346,16.47-10.91c-4.605,3.748-6.368,10.371-7.39,16.22c1.687-2.573,3.357-4.897,5.97-6.54c0.011-0.01,0.03-0.02,0.04-0.02c1.029-0.699,0.76-0.509,2.521-1.39c-0.669,1-0.731,0.87-1.79,3.04c2.426,6.377,10.523,6.413,11.729,17.47c1.857-1.647,2.441-1.944,4.42-3.33c-1.542,2.394-2.784,6.768-3.55,9.32c2.905-2.485,8.279-4.33,10.54-5.15c-3,3.05-5.913,7.096-6.26,11.36c0.614-0.413,1.394-0.74,2.39-1.46c0,2.724,0.13,2.36,0.13,4.16c0.526-0.481,1.72-1.51,2.271-2.11c-0.196,31.716-1.88,25.564-6.311,47.91c-1.658,8.376-2.533,12.25-3.081,14.283l0.428-0.087c3.584-10.751,10.737-35.042,10.414-47.616c-0.033-4.7-1.059-14.5-1.11-15.5c-0.021,0.018-2.084,1.97-2.11,1.97c0-0.511-0.21-2.685-0.21-3.87c-0.353,0.271-1.095,0.778-2.09,1.36C161.758,26.981,163.857,24.394,167.779,19.695z" fill="#000000" stroke-width="none" opacity="1" stroke="none"></path></g><g id="svga-group-glasses-single" ><path id="SvgjsPath3009" d="M100,18.13L100,18.13L100,18.13L100,18.13z" fill="#26120b" stroke-width="none" opacity="1"></path></g></g></g></g><defs id="SvgjsDefs1001"><radialGradient id="SvgjsRadialGradient2883" cx="100" cy="114" r="41" gradientUnits="userSpaceOnUse" class="svga-on-canvas-facehighlight-gradient-single-0"><stop id="SvgjsStop2884" stop-opacity="0.5" stop-color="#ffe4d6" offset="0" ></stop><stop id="SvgjsStop2885" stop-opacity="0" stop-color="#f0c7b1" offset="0.9" ></stop></radialGradient><radialGradient id="SvgjsRadialGradient2887" cx="100" cy="54" r="37" gradientUnits="userSpaceOnUse" class="svga-on-canvas-facehighlight-gradient-single-1"><stop id="SvgjsStop2888" stop-opacity="0.5" stop-color="#ffe4d6" offset="0" ></stop><stop id="SvgjsStop2889" stop-opacity="0" stop-color="#f0c7b1" offset="0.9" ></stop></radialGradient><radialGradient id="SvgjsRadialGradient3237" cx="126.275" cy="85.349" r="10.629" gradientTransform="matrix(-1 0 0 1 200 0)" gradientUnits="userSpaceOnUse" class="svga-on-canvas-eyesback-gradient-left-0"><stop id="SvgjsStop3238" stop-opacity="1" stop-color="#ffffff" offset="0" ></stop><stop id="SvgjsStop3239" stop-opacity="1" stop-color="#fdfefe" offset="0.544" ></stop><stop id="SvgjsStop3240" stop-opacity="1" stop-color="#f6f8f9" offset="0.74" ></stop><stop id="SvgjsStop3241" stop-opacity="1" stop-color="#eaeff2" offset="0.879" ></stop><stop id="SvgjsStop3242" stop-opacity="1" stop-color="#d9e3e8" offset="0.992" ></stop><stop id="SvgjsStop3243" stop-opacity="1" stop-color="#d8e2e7" offset="1" ></stop></radialGradient><radialGradient id="SvgjsRadialGradient3245" cx="125.875" cy="85.349" r="10.629" gradientUnits="userSpaceOnUse" class="svga-on-canvas-eyesback-gradient-right-0"><stop id="SvgjsStop3246" stop-opacity="1" stop-color="#ffffff" offset="0" ></stop><stop id="SvgjsStop3247" stop-opacity="1" stop-color="#fdfefe" offset="0.544" ></stop><stop id="SvgjsStop3248" stop-opacity="1" stop-color="#f6f8f9" offset="0.74" ></stop><stop id="SvgjsStop3249" stop-opacity="1" stop-color="#eaeff2" offset="0.879" ></stop><stop id="SvgjsStop3250" stop-opacity="1" stop-color="#d9e3e8" offset="0.992" ></stop><stop id="SvgjsStop3251" stop-opacity="1" stop-color="#d8e2e7" offset="1" ></stop></radialGradient><radialGradient id="SvgjsRadialGradient3253" cx="126.275" cy="85.349" r="10.629" gradientTransform="matrix(-1 0 0 1 200 0)" gradientUnits="userSpaceOnUse" class="svga-on-canvas-eyesfront-gradient-left-0"><stop id="SvgjsStop3254" stop-opacity="1" stop-color="#ffffff" offset="0" ></stop><stop id="SvgjsStop3255" stop-opacity="1" stop-color="#fdfefe" offset="0.544" ></stop><stop id="SvgjsStop3256" stop-opacity="1" stop-color="#f6f8f9" offset="0.74" ></stop><stop id="SvgjsStop3257" stop-opacity="1" stop-color="#eaeff2" offset="0.879" ></stop><stop id="SvgjsStop3258" stop-opacity="1" stop-color="#d9e3e8" offset="0.992" ></stop><stop id="SvgjsStop3259" stop-opacity="1" stop-color="#d8e2e7" offset="1" ></stop></radialGradient><radialGradient id="SvgjsRadialGradient3263" cx="123.715" cy="83.955" fx="135.822" fy="83.989" r="17.219" gradientTransform="matrix(0.9998 0.0206 0.0166 -0.7916 -48.8004 147.8581)" gradientUnits="userSpaceOnUse" class="svga-on-canvas-eyesfront-gradient-left-3"><stop id="SvgjsStop3264" stop-opacity="1" stop-color="#e1ac8f" offset="0" ></stop><stop id="SvgjsStop3265" stop-opacity="0.3" stop-color="#e1ac8f" offset="0.7" ></stop><stop id="SvgjsStop3266" stop-opacity="0" stop-color="#f0c7b1" offset="1" ></stop></radialGradient><radialGradient id="SvgjsRadialGradient3268" cx="123.018" cy="104.865" r="27.497" gradientTransform="matrix(-0.9336 -0.3584 -0.3046 0.7935 223.7724 65.7356)" gradientUnits="userSpaceOnUse" class="svga-on-canvas-eyesfront-gradient-left-4"><stop id="SvgjsStop3269" stop-opacity="0" stop-color="#000000" offset="0.95" ></stop><stop id="SvgjsStop3270" stop-opacity="0.2" stop-color="#000000" offset="1" ></stop></radialGradient><radialGradient id="SvgjsRadialGradient3274" cx="125.875" cy="85.349" r="10.629" gradientUnits="userSpaceOnUse" class="svga-on-canvas-eyesfront-gradient-right-0"><stop id="SvgjsStop3275" stop-opacity="1" stop-color="#ffffff" offset="0" ></stop><stop id="SvgjsStop3276" stop-opacity="1" stop-color="#fdfefe" offset="0.544" ></stop><stop id="SvgjsStop3277" stop-opacity="1" stop-color="#f6f8f9" offset="0.74" ></stop><stop id="SvgjsStop3278" stop-opacity="1" stop-color="#eaeff2" offset="0.879" ></stop><stop id="SvgjsStop3279" stop-opacity="1" stop-color="#d9e3e8" offset="0.992" ></stop><stop id="SvgjsStop3280" stop-opacity="1" stop-color="#d8e2e7" offset="1" ></stop></radialGradient><radialGradient id="SvgjsRadialGradient3284" cx="123.315" cy="83.955" fx="135.422" fy="83.989" r="17.219" gradientTransform="matrix(-0.9998 0.0206 -0.0166 -0.7916 248.0017 147.8663)" gradientUnits="userSpaceOnUse" class="svga-on-canvas-eyesfront-gradient-right-3"><stop id="SvgjsStop3285" stop-opacity="1" stop-color="#e1ac8f" offset="0" ></stop><stop id="SvgjsStop3286" stop-opacity="0.3" stop-color="#e1ac8f" offset="0.7" ></stop><stop id="SvgjsStop3287" stop-opacity="0" stop-color="#f0c7b1" offset="1" ></stop></radialGradient><radialGradient id="SvgjsRadialGradient3289" cx="122.617" cy="104.865" r="27.498" gradientTransform="matrix(0.9336 -0.3584 0.3046 0.7935 -23.799 65.5921)" gradientUnits="userSpaceOnUse" class="svga-on-canvas-eyesfront-gradient-right-4"><stop id="SvgjsStop3290" stop-opacity="0" stop-color="#000000" offset="0.95" ></stop><stop id="SvgjsStop3291" stop-opacity="0.2" stop-color="#000000" offset="1" ></stop></radialGradient><radialGradient id="SvgjsRadialGradient3296" cx="-568.659" cy="-521.042" r="59.751" gradientTransform="matrix(0.096 -0.0248 0.0245 0.0961 141.2814 119.9893)" gradientUnits="userSpaceOnUse" class="svga-on-canvas-eyesiris-gradient-left-1"><stop id="SvgjsStop3297" stop-opacity="1" stop-color="#ffffff" offset="0" ></stop><stop id="SvgjsStop3298" stop-opacity="0" stop-color="#ffffff" offset="1" ></stop></radialGradient><radialGradient id="SvgjsRadialGradient3300" cx="-582.838" cy="-519.099" r="59.745" gradientTransform="matrix(0.0991 8.856319e-004 -0.0011 0.0991 131.1134 135.9855)" gradientUnits="userSpaceOnUse" class="svga-on-canvas-eyesiris-gradient-left-2"><stop id="SvgjsStop3301" stop-opacity="1" stop-color="#ffffff" offset="0" ></stop><stop id="SvgjsStop3302" stop-opacity="0" stop-color="#ffffff" offset="1" ></stop></radialGradient><linearGradient id="SvgjsLinearGradient3306" x1="122.67" y1="88.268" x2="123.606" y2="87.152" gradientTransform="matrix(1 0 0 1 -52 0)" gradientUnits="userSpaceOnUse" class="svga-on-canvas-eyesiris-gradient-left-5"><stop id="SvgjsStop3307" stop-opacity="1" stop-color="#ffffff" offset="0" ></stop><stop id="SvgjsStop3308" stop-opacity="0" stop-color="#ffffff" offset="1" ></stop></linearGradient><linearGradient id="SvgjsLinearGradient3310" x1="127.212" y1="82.296" x2="126.463" y2="83.189" gradientTransform="matrix(1 0 0 1 -52 0)" gradientUnits="userSpaceOnUse" class="svga-on-canvas-eyesiris-gradient-left-6"><stop id="SvgjsStop3311" stop-opacity="1" stop-color="#ffffff" offset="0" ></stop><stop id="SvgjsStop3312" stop-opacity="0" stop-color="#ffffff" offset="1" ></stop></linearGradient><linearGradient id="SvgjsLinearGradient3314" x1="129.636" y1="79.822" x2="127.91" y2="81.879" gradientTransform="matrix(1 0 0 1 -52 0)" gradientUnits="userSpaceOnUse" class="svga-on-canvas-eyesiris-gradient-left-7"><stop id="SvgjsStop3315" stop-opacity="1" stop-color="#ffffff" offset="0" ></stop><stop id="SvgjsStop3316" stop-opacity="0" stop-color="#ffffff" offset="1" ></stop></linearGradient><radialGradient id="SvgjsRadialGradient3319" cx="-568.654" cy="-521.042" r="59.752" gradientTransform="matrix(0.096 -0.0248 0.0245 0.0961 193.2804 119.9894)" gradientUnits="userSpaceOnUse" class="svga-on-canvas-eyesiris-gradient-right-1"><stop id="SvgjsStop3320" stop-opacity="1" stop-color="#ffffff" offset="0" ></stop><stop id="SvgjsStop3321" stop-opacity="0" stop-color="#ffffff" offset="1" ></stop></radialGradient><radialGradient id="SvgjsRadialGradient3323" cx="-582.833" cy="-519.102" r="59.747" gradientTransform="matrix(0.0991 8.856319e-004 -0.0011 0.0991 183.1126 135.9856)" gradientUnits="userSpaceOnUse" class="svga-on-canvas-eyesiris-gradient-right-2"><stop id="SvgjsStop3324" stop-opacity="1" stop-color="#ffffff" offset="0" ></stop><stop id="SvgjsStop3325" stop-opacity="0" stop-color="#ffffff" offset="1" ></stop></radialGradient><linearGradient id="SvgjsLinearGradient3329" x1="122.67" y1="88.268" x2="123.606" y2="87.152" gradientUnits="userSpaceOnUse" class="svga-on-canvas-eyesiris-gradient-right-5"><stop id="SvgjsStop3330" stop-opacity="1" stop-color="#ffffff" offset="0" ></stop><stop id="SvgjsStop3331" stop-opacity="0" stop-color="#ffffff" offset="1" ></stop></linearGradient><linearGradient id="SvgjsLinearGradient3333" x1="127.212" y1="82.296" x2="126.463" y2="83.189" gradientUnits="userSpaceOnUse" class="svga-on-canvas-eyesiris-gradient-right-6"><stop id="SvgjsStop3334" stop-opacity="1" stop-color="#ffffff" offset="0" ></stop><stop id="SvgjsStop3335" stop-opacity="0" stop-color="#ffffff" offset="1" ></stop></linearGradient><linearGradient id="SvgjsLinearGradient3337" x1="129.636" y1="79.822" x2="127.91" y2="81.879" gradientUnits="userSpaceOnUse" class="svga-on-canvas-eyesiris-gradient-right-7"><stop id="SvgjsStop3338" stop-opacity="1" stop-color="#ffffff" offset="0" ></stop><stop id="SvgjsStop3339" stop-opacity="0" stop-color="#ffffff" offset="1" ></stop></linearGradient><linearGradient id="SvgjsLinearGradient3393" x1="100" y1="142" x2="100" y2="139" gradientUnits="userSpaceOnUse" class="svga-on-canvas-mouth-gradient-single-0"><stop id="SvgjsStop3394" stop-opacity="1" stop-color="#e8b9a0" offset="0.1" ></stop><stop id="SvgjsStop3395" stop-opacity="1" stop-color="#e1ac8f" offset="1" ></stop></linearGradient><linearGradient id="SvgjsLinearGradient3501" x1="100" y1="170" x2="100" y2="132" gradientUnits="userSpaceOnUse" class="svga-on-canvas-chinshadow-gradient-single-0"><stop id="SvgjsStop3502" stop-opacity="0.8" stop-color="#e1ac8f" offset="0" ></stop><stop id="SvgjsStop3503" stop-opacity="1" stop-color="#c27b55" offset="0.7" ></stop></linearGradient></defs></svg>